<?xml version="1.0" encoding="UTF-8" standalone="no"?>
<svg
   width="48"
   height="48"
   viewBox="0 0 48 48"
   fill="none"
   version="1.1"
   id="svg1"
   sodipodi:docname="icon.svg"
   inkscape:version="1.4.3 (0d15f75, 2025-12-25)"
   xmlns:inkscape="http://www.inkscape.org/namespaces/inkscape"
   xmlns:sodipodi="http://sodipodi.sourceforge.net/DTD/sodipodi-0.dtd"
   xmlns="http://www.w3.org/2000/svg"
   xmlns:svg="http://www.w3.org/2000/svg">
  <defs
     id="defs1">
    <radialGradient
       id="paint3_radial_72095_10082"
       cx="0"
       cy="0"
       r="1"
       gradientUnits="userSpaceOnUse"
       gradientTransform="matrix(28.684387,43.526948,-37.278835,24.566863,2.1403418,-0.06775084)">
      <stop
         offset="0.771547"
         stop-color="#FFCD0F"
         id="stop10" />
      <stop
         offset="0.990707"
         stop-color="#E67505"
         id="stop11" />
    </radialGradient>
    <radialGradient
       id="paint2_radial_72095_10082"
       cx="0"
       cy="0"
       r="1"
       gradientUnits="userSpaceOnUse"
       gradientTransform="matrix(0,9.6965527,-15.016539,0,26.989107,39.411166)">
      <stop
         stop-color="#163697"
         id="stop8" />
      <stop
         offset="1"
         stop-color="#29C3FF"
         id="stop9" />
    </radialGradient>
    <linearGradient
       id="paint1_linear_72095_10082"
       x1="31.200001"
       y1="30.700001"
       x2="20.4037"
       y2="1.77095"
       gradientUnits="userSpaceOnUse"
       gradientTransform="matrix(0.84901082,0,0,0.84901082,20.621526,20.733012)">
      <stop
         stop-color="#9DEAFF"
         id="stop6" />
      <stop
         offset="1"
         stop-color="white"
         id="stop7" />
    </linearGradient>
    <linearGradient
       id="paint0_linear_72095_10082"
       x1="3"
       y1="7.9375"
       x2="16.7656"
       y2="27.006701"
       gradientUnits="userSpaceOnUse"
       gradientTransform="matrix(0.84901082,0,0,0.84901082,20.621526,20.733012)">
      <stop
         stop-color="#0FAFFF"
         id="stop4" />
      <stop
         offset="1"
         stop-color="#2764E7"
         id="stop5" />
    </linearGradient>
  </defs>
  <sodipodi:namedview
     id="namedview1"
     pagecolor="#ffffff"
     bordercolor="#000000"
     borderopacity="0.25"
     inkscape:showpageshadow="2"
     inkscape:pageopacity="0.0"
     inkscape:pagecheckerboard="0"
     inkscape:deskcolor="#d1d1d1"
     inkscape:zoom="8.0520833"
     inkscape:cx="12.481242"
     inkscape:cy="24.403622"
     inkscape:window-width="1920"
     inkscape:window-height="991"
     inkscape:window-x="-9"
     inkscape:window-y="-9"
     inkscape:window-maximized="1"
     inkscape:current-layer="svg1" />
  <path
     d="M26.3212 4.83179C24.8311 4.23576 23.1689 4.23576 21.6788 4.83179L6.67159 10.8347C5.05804 11.4801 4 13.0429 4 14.7807V33.2185C4 34.9563 5.05804 36.5191 6.67159 37.1645L21.6788 43.1674C23.1689 43.7634 24.8311 43.7634 26.3212 43.1674L41.3284 37.1645C42.942 36.5191 44 34.9563 44 33.2185V14.7807C44 13.0429 42.942 11.4801 41.3284 10.8347L26.3212 4.83179ZM22.6073 7.15298C23.5013 6.79536 24.4987 6.79536 25.3927 7.15298L39.3843 12.7496L33.375 15.1533L17.9907 8.9996L22.6073 7.15298ZM14.625 10.3459L30.0093 16.4996L24 18.9033L8.61573 12.7496L14.625 10.3459ZM6.50935 14.5996L22.75 21.0959V40.9C22.7022 40.8831 22.6546 40.8651 22.6073 40.8462L7.60006 34.8433C6.93566 34.5776 6.5 33.9341 6.5 33.2185V14.7807C6.5 14.7198 6.50316 14.6593 6.50935 14.5996ZM25.25 40.9V21.0959L41.4907 14.5996C41.4968 14.6593 41.5 14.7198 41.5 14.7807V33.2185C41.5 33.9341 41.0643 34.5776 40.3999 34.8433L25.3927 40.8462C25.3454 40.8651 25.2978 40.8831 25.25 40.9Z"
     fill="#212121"
     id="path1" />
  <path
     d="m 25.078832,24.129056 c -1.523915,0 -2.759285,1.235379 -2.759285,2.759285 v 10.824888 h 0.445467 c 0.07862,0.791873 0.374855,1.519729 0.828049,2.122952 v 2.122103 h 19.739502 c 1.52389,0 2.759285,-1.235396 2.759285,-2.759285 V 26.888341 c 0,-1.523906 -1.235395,-2.759285 -2.759285,-2.759285 z"
     fill="url(#paint0_linear_72095_10082)"
     id="path1-5"
     style="fill:url(#paint0_linear_72095_10082);stroke-width:0.849011" />
  <path
     d="m 27.413611,30.072131 c 0,-0.468908 0.38012,-0.849011 0.849011,-0.849011 h 11.886153 c 0.468908,0 0.849011,0.380103 0.849011,0.849011 0,0.46891 -0.380103,0.849011 -0.849011,0.849011 H 28.262622 c -0.468891,0 -0.849011,-0.380101 -0.849011,-0.849011 z m 7.641099,5.094065 c -0.468909,0 -0.849011,0.380103 -0.849011,0.849011 0,0.468909 0.380102,0.849011 0.849011,0.849011 h 5.094065 c 0.468908,0 0.849011,-0.380102 0.849011,-0.849011 0,-0.468908 -0.380103,-0.849011 -0.849011,-0.849011 z"
     fill="url(#paint1_linear_72095_10082)"
     fill-opacity="0.9"
     id="path2"
     style="fill:url(#paint1_linear_72095_10082);stroke-width:0.849011" />
  <path
     d="m 30.809654,39.294171 c -1.033074,0.867861 -2.365751,1.39051 -3.820547,1.39051 -1.454798,0 -2.787498,-0.522649 -3.820549,-1.39051 v 6.06007 c 0,0.666134 0.732008,1.072811 1.297543,0.720896 l 2.523006,-1.569907 2.523004,1.569907 c 0.565527,0.351915 1.297543,-0.05477 1.297543,-0.720896 z"
     fill="url(#paint2_radial_72095_10082)"
     id="path3"
     style="fill:url(#paint2_radial_72095_10082);stroke-width:0.849011" />
  <path
     d="m 31.658665,37.288723 c 0,2.578956 -2.090604,4.669561 -4.669558,4.669561 -2.578931,0 -4.66956,-2.090605 -4.66956,-4.669561 0,-2.578954 2.090629,-4.66956 4.66956,-4.66956 2.578954,0 4.669558,2.090606 4.669558,4.66956 z"
     fill="url(#paint3_radial_72095_10082)"
     id="path4"
     style="fill:url(#paint3_radial_72095_10082);stroke-width:0.849011" />
</svg>
